<svg xmlns="http://www.w3.org/2000/svg" viewBox="0 0 112 112" fill="none" shape-rendering="auto"><metadata xmlns:rdf="http://www.w3.org/1999/02/22-rdf-syntax-ns#" xmlns:xsi="http://www.w3.org/2001/XMLSchema-instance" xmlns:dc="http://purl.org/dc/elements/1.1/" xmlns:dcterms="http://purl.org/dc/terms/"><rdf:RDF><rdf:Description><dc:title>Avataaars</dc:title><dc:creator>Pablo Stanley</dc:creator><dc:source xsi:type="dcterms:URI">https://avataaars.com/</dc:source><dcterms:license xsi:type="dcterms:URI">https://avataaars.com/</dcterms:license><dc:rights>Remix of „Avataaars” (https://avataaars.com/) by „Pablo Stanley”, licensed under „Free for personal and commercial use.” (https://avataaars.com/)</dc:rights></rdf:Description></rdf:RDF></metadata><mask id="viewboxMask"><rect width="112" height="112" rx="0" ry="0" x="0" y="0" fill="#fff" /></mask><g mask="url(#viewboxMask)"><rect fill="#b6e3f4" width="112" height="112" x="0" y="0" /><g transform="translate(2 63)"><path fill-rule="evenodd" clip-rule="evenodd" d="M40 29a14 14 0 1 1 28 0" fill="#000" fill-opacity=".7"/></g><g transform="translate(28 51)"><path fill-rule="evenodd" clip-rule="evenodd" d="M16 8c0 4.42 5.37 8 12 8s12-3.58 12-8" fill="#000" fill-opacity=".16"/></g><g transform="translate(0 19)"><path d="M25 27s-6 7.27-6 11.27a6 6 0 1 0 12 0c0-4-6-11.27-6-11.27Z" fill="#92D9FF"/><path d="M36 22a6 6 0 1 1-12 0 6 6 0 0 1 12 0ZM88 22a6 6 0 1 1-12 0 6 6 0 0 1 12 0Z" fill="#000" fill-opacity=".6"/></g><g transform="translate(0 11)"><path d="M15.61 15.18c4.24-5.76 6.88-5.48 13.31-.62l.67.5C34.41 18.73 36.7 20 40 20a2 2 0 1 0 0-4c-2.07 0-3.9-1.02-7.99-4.12l-.68-.52C27.57 8.53 25.37 7.3 22.63 7c-3.68-.4-7.05 1.48-10.24 5.83a2 2 0 1 0 3.22 2.36ZM96.39 15.18c-4.24-5.76-6.88-5.48-13.31-.62l-.67.5C77.58 18.73 75.29 20 72 20a2 2 0 1 1 0-4c2.07 0 3.9-1.02 7.99-4.12l.68-.52c3.76-2.83 5.96-4.07 8.7-4.37 3.68-.4 7.05 1.48 10.24 5.83a2 2 0 1 1-3.22 2.36Z" fill="#000" fill-opacity=".6"/></g></g></svg>